<svg xmlns="http://www.w3.org/2000/svg" width="95.598" height="95.598" viewBox="0 0 95.598 95.598">
  <g id="Vector_Smart_Object" data-name="Vector Smart Object" transform="translate(65.352 65.352)">
    <path id="Path_50" data-name="Path 50" d="M47.8,3.986A43.812,43.812,0,1,0,91.611,47.8,44.04,44.04,0,0,0,47.8,3.986m0,91.611A47.8,47.8,0,1,1,95.6,47.8,47.736,47.736,0,0,1,47.8,95.6M58.992,46.314a1.848,1.848,0,0,1,0,2.969L37.838,63.38a1.152,1.152,0,0,1-1.979-.99V33.207a1.154,1.154,0,0,1,1.979-.99Z" transform="translate(-65.352 -65.352)" fill="#eaaa19"/>
  </g>
</svg>
